<?xml version="1.0" encoding="utf-8"?>
<!-- Generator: Adobe Illustrator 25.4.1, SVG Export Plug-In . SVG Version: 6.00 Build 0)  -->
<svg version="1.1" id="Capa_1" xmlns="http://www.w3.org/2000/svg" xmlns:xlink="http://www.w3.org/1999/xlink" x="0px" y="0px"
	 width="125.928px" height="82.503px" viewBox="0 0 125.928 82.503" style="enable-background:new 0 0 125.928 82.503;"
	 xml:space="preserve">
<style type="text/css">
	.st0{fill-rule:evenodd;clip-rule:evenodd;fill:#1A6862;}
	.st1{opacity:0.1;clip-path:url(#SVGID_00000182504121945205073750000000414722757579698613_);}
	.st2{opacity:0.3;fill:url(#SVGID_00000057131047842288895980000007321891615569960588_);}
	.st3{opacity:0.2;fill:url(#SVGID_00000178206592702016267880000013010577511358391730_);}
	.st4{clip-path:url(#SVGID_00000163051207849622291310000018283305266375931548_);}
	.st5{opacity:0.1;clip-path:url(#SVGID_00000000926116930695246810000000581575618126964651_);}
	.st6{opacity:0.3;fill:url(#SVGID_00000111167285007723744870000015106815871468067220_);}
	.st7{opacity:0.2;fill:url(#SVGID_00000099653604868831816240000000493637815273985152_);}
	.st8{clip-path:url(#SVGID_00000093865861085671214360000013855170334170832271_);}
	.st9{fill-rule:evenodd;clip-rule:evenodd;fill:#878723;}
	.st10{fill:#4D4D4D;}
	.st11{fill:#F2F2F2;}
	.st12{opacity:0.15;}
	.st13{fill:#808080;}
	.st14{fill:#CCCCCC;}
	.st15{fill:#FFFFFF;}
	.st16{fill:none;}
	.st17{fill:#D3C3B4;}
	.st18{fill-rule:evenodd;clip-rule:evenodd;fill:#7A7A4E;}
	.st19{fill-rule:evenodd;clip-rule:evenodd;fill:#A7AB2B;}
	.st20{fill-rule:evenodd;clip-rule:evenodd;fill:#C8D641;}
</style>
<rect x="-361.27" y="-1649.061" class="st0" width="1930" height="1090"/>
<g>
	<defs>
		<rect id="SVGID_1_" x="-361.27" y="-1649.061" width="1930" height="1090"/>
	</defs>
	<clipPath id="SVGID_00000042696110354268909170000016106430019270807937_">
		<use xlink:href="#SVGID_1_"  style="overflow:visible;"/>
	</clipPath>
	<path style="opacity:0.1;clip-path:url(#SVGID_00000042696110354268909170000016106430019270807937_);" d="M107.152-454.132
		c1.731-1.769,3.479-3.521,5.246-5.257c115.073-112.97,266.651-41.47,398.881-18.708c145.296,25.012,269.659-42.112,297.935-204.894
		c23.851-137.311-16.686-286.651,35.319-418.56c38.79-98.391,139.814-136.912,232.651-145.539
		c88.189-8.196,178.022,4.028,264.861-14.467c222.712-47.432,349.053-281.527,321.003-517.541
		c-23.485-197.608-168.437-390.343-350.188-438.648c-108.337-28.794-223.414-14.795-330.172,20.191
		c-148.02,48.507-270.254,162.287-430.178,138.583c-149.488-22.157-278.895-125.752-391.149-227.784
		c-189.935-172.639-403.012-367.414-667.638-266.927c-116.991,44.425-215.976,135.081-288.363,243.704
		c-122.052,183.15-173.318,409.255-198.154,629.898c-25.111,223.084-18.353,450.252,19.276,671.255
		c36.326,213.357,94.054,454.656,216.807,628.456c85.139,120.544,205.7,216.555,343.553,245.839
		c106.857,22.699,224.047,1.453,314.383-65.605C-10.598-265.591,30.957-376.216,107.152-454.132z"/>
	<path style="opacity:0.1;clip-path:url(#SVGID_00000042696110354268909170000016106430019270807937_);" d="M113.889-887.215
		c1.209-1.145,2.43-2.28,3.664-3.404c80.363-73.151,186.221-26.853,278.565-12.114c101.47,16.196,188.321-27.269,208.068-132.674
		c16.657-88.912-11.653-185.613,24.666-271.027c27.09-63.71,97.641-88.654,162.476-94.24c61.588-5.307,124.325,2.608,184.971-9.368
		c155.535-30.713,243.767-182.295,224.178-335.12c-16.401-127.955-117.631-252.756-244.56-284.035
		c-75.659-18.645-156.025-9.58-230.581,13.074c-103.373,31.409-188.737,105.085-300.423,89.736
		c-104.398-14.347-194.771-81.427-273.166-147.495c-132.644-111.788-281.45-237.909-466.257-172.842
		c-81.703,28.766-150.831,87.468-201.383,157.804c-85.237,118.594-121.04,265.002-138.384,407.873
		c-17.537,144.452-12.817,291.548,13.462,434.653c25.369,138.153,65.685,294.4,151.411,406.939
		c59.458,78.055,143.654,140.224,239.926,159.186c74.625,14.698,156.467,0.941,219.555-42.481
		C31.656-765.131,60.677-836.763,113.889-887.215z"/>
</g>
<linearGradient id="SVGID_00000075158710759346582680000007342192907697511561_" gradientUnits="userSpaceOnUse" x1="603.7295" y1="-919.6777" x2="603.7295" y2="-1649.061">
	<stop  offset="0" style="stop-color:#FFFFFF;stop-opacity:0"/>
	<stop  offset="1" style="stop-color:#FFFFFF"/>
</linearGradient>
<rect x="-361.27" y="-1649.061" style="opacity:0.3;fill:url(#SVGID_00000075158710759346582680000007342192907697511561_);" width="1930" height="729.383"/>
<linearGradient id="SVGID_00000012440294008947221340000008618875142997597826_" gradientUnits="userSpaceOnUse" x1="-361.2705" y1="-1104.061" x2="1568.7295" y2="-1104.061">
	<stop  offset="0" style="stop-color:#FF00FF"/>
	<stop  offset="0.097" style="stop-color:#DF20FF"/>
	<stop  offset="0.3513" style="stop-color:#916EFF"/>
	<stop  offset="0.5777" style="stop-color:#53ACFF"/>
	<stop  offset="0.7679" style="stop-color:#26D9FF"/>
	<stop  offset="0.9146" style="stop-color:#0AF5FF"/>
	<stop  offset="1" style="stop-color:#00FFFF"/>
</linearGradient>
<rect x="-361.27" y="-1649.061" style="opacity:0.2;fill:url(#SVGID_00000012440294008947221340000008618875142997597826_);" width="1930" height="1090"/>
<g>
	<defs>
		<rect id="SVGID_00000159433675745116614160000004460443074151578499_" x="-361.27" y="-1649.061" width="1930" height="1090"/>
	</defs>
	<clipPath id="SVGID_00000003074086011434023290000009064872729257676161_">
		<use xlink:href="#SVGID_00000159433675745116614160000004460443074151578499_"  style="overflow:visible;"/>
	</clipPath>
	
		<g id="LpW4YQ_00000175305129419164369360000000949395429517938817_" style="clip-path:url(#SVGID_00000003074086011434023290000009064872729257676161_);">
		
			<image style="overflow:visible;" width="1800" height="1200" id="LpW4YQ_00000163051738023378334980000003344493527229506191_" xlink:href="C1F15BE13433E9B1.jpg"  transform="matrix(1.0806 0 0 1.0806 -369.4214 -1721.4155)">
		</image>
	</g>
</g>
<rect x="1598.236" y="-1073.403" transform="matrix(6.123234e-17 -1 1 6.123234e-17 3091.6396 2034.833)" class="st0" width="1930" height="1090"/>
<g>
	<defs>
		
			<rect id="SVGID_00000022519686291513007390000014911760441311195293_" x="1598.236" y="-1073.403" transform="matrix(-1.836970e-16 1 -1 -1.836970e-16 2034.833 -3091.6396)" width="1930" height="1090"/>
	</defs>
	<clipPath id="SVGID_00000173138332707163710820000000489857542084122549_">
		<use xlink:href="#SVGID_00000022519686291513007390000014911760441311195293_"  style="overflow:visible;"/>
	</clipPath>
	<path style="opacity:0.1;clip-path:url(#SVGID_00000173138332707163710820000000489857542084122549_);" d="M3213.166-1024.981
		c-1.769,1.731-3.521,3.479-5.257,5.246c-112.97,115.073-41.469,266.651-18.708,398.881
		c25.012,145.296-42.113,269.659-204.894,297.935c-137.311,23.851-286.651-16.686-418.56,35.319
		c-98.391,38.79-136.912,139.814-145.538,232.651c-8.196,88.189,4.028,178.022-14.467,264.861
		c-47.432,222.712-281.527,349.053-517.541,321.003c-197.608-23.485-390.344-168.437-438.648-350.188
		c-28.794-108.337-14.795-223.414,20.191-330.172c48.507-148.02,162.287-270.254,138.584-430.178
		c-22.157-149.488-125.752-278.895-227.784-391.149c-172.639-189.935-367.414-403.012-266.928-667.638
		c44.425-116.991,135.081-215.976,243.704-288.363c183.15-122.052,409.255-173.318,629.898-198.154
		c223.085-25.111,450.252-18.353,671.255,19.276c213.357,36.326,454.656,94.054,628.456,216.807
		c120.544,85.139,216.554,205.7,245.839,343.553c22.699,106.857,1.453,224.047-65.604,314.383
		C3401.706-1142.731,3291.082-1101.176,3213.166-1024.981z"/>
	<path style="opacity:0.1;clip-path:url(#SVGID_00000173138332707163710820000000489857542084122549_);" d="M2780.082-1018.244
		c-1.145,1.209-2.28,2.43-3.404,3.664c-73.151,80.363-26.853,186.221-12.114,278.565c16.196,101.47-27.269,188.321-132.674,208.068
		c-88.912,16.657-185.613-11.653-271.027,24.666c-63.71,27.09-88.654,97.641-94.24,162.476
		c-5.307,61.588,2.608,124.325-9.368,184.971c-30.713,155.535-182.295,243.767-335.12,224.178
		c-127.955-16.401-252.756-117.631-284.035-244.56c-18.645-75.659-9.58-156.025,13.074-230.581
		c31.409-103.373,105.085-188.737,89.736-300.423c-14.347-104.398-81.427-194.771-147.495-273.166
		c-111.787-132.644-237.909-281.45-172.842-466.257c28.766-81.703,87.468-150.831,157.804-201.383
		c118.594-85.237,265.002-121.04,407.873-138.384c144.452-17.537,291.548-12.817,434.653,13.462
		c138.153,25.369,294.4,65.685,406.94,151.411c78.055,59.458,140.224,143.654,159.186,239.926
		c14.698,74.625,0.941,156.467-42.48,219.555C2902.167-1100.477,2830.535-1071.456,2780.082-1018.244z"/>
</g>
<linearGradient id="SVGID_00000157286241917686907800000001891242023679179148_" gradientUnits="userSpaceOnUse" x1="2563.2363" y1="-159.8073" x2="2563.2363" y2="-1493.4033">
	<stop  offset="0" style="stop-color:#FFFFFF;stop-opacity:0"/>
	<stop  offset="1" style="stop-color:#FFFFFF"/>
</linearGradient>
<rect x="2018.236" y="-1493.403" style="opacity:0.3;fill:url(#SVGID_00000157286241917686907800000001891242023679179148_);" width="1090" height="1333.596"/>
<linearGradient id="SVGID_00000049180374974369858340000006965875640437627071_" gradientUnits="userSpaceOnUse" x1="4531.5771" y1="-957.705" x2="4531.5771" y2="132.295" gradientTransform="matrix(6.123234e-17 -1 1 6.123234e-17 2975.9414 4003.1738)">
	<stop  offset="0" style="stop-color:#FF00FF"/>
	<stop  offset="0.097" style="stop-color:#DF20FF"/>
	<stop  offset="0.3513" style="stop-color:#916EFF"/>
	<stop  offset="0.5777" style="stop-color:#53ACFF"/>
	<stop  offset="0.7679" style="stop-color:#26D9FF"/>
	<stop  offset="0.9146" style="stop-color:#0AF5FF"/>
	<stop  offset="1" style="stop-color:#00FFFF"/>
</linearGradient>
<polygon style="opacity:0.2;fill:url(#SVGID_00000049180374974369858340000006965875640437627071_);" points="3108.236,-1493.403 
	3108.236,436.597 2018.236,436.597 2018.236,-1493.403 "/>
<g>
	<defs>
		
			<rect id="SVGID_00000106835203406865035060000005425637647088671921_" x="1598.236" y="-1073.403" transform="matrix(6.123234e-17 -1 1 6.123234e-17 3091.6396 2034.833)" width="1930" height="1090"/>
	</defs>
	<clipPath id="SVGID_00000009552129976030810990000014836068817886432912_">
		<use xlink:href="#SVGID_00000106835203406865035060000005425637647088671921_"  style="overflow:visible;"/>
	</clipPath>
	
		<g id="LpW4YQ_00000051384317923307458770000016667562867115966593_" style="clip-path:url(#SVGID_00000009552129976030810990000014836068817886432912_);">
		
			<image style="overflow:visible;" width="1800" height="1200" id="LpW4YQ_00000047035508346357368240000003478747162292128441_" xlink:href="C1F15BE13433E9B3.jpg"  transform="matrix(-3.531474e-07 -1.0806 1.0806 -3.531474e-07 1945.8818 444.7476)">
		</image>
	</g>
</g>
<g>
	<g>
		<g>
			<g>
				<g>
					<path class="st9" d="M62.344,51.757c-3.588-2.813-4.579-7.929-2.145-11.915c2.624-4.295,8.232-5.65,12.528-3.026
						c1.561,0.954,2.734,2.302,3.468,3.839c3.453-2.279,8.052-2.509,11.817-0.209c5.011,3.061,6.71,9.482,3.971,14.593
						c1.253,2.677,1.183,5.911-0.474,8.622c-2.623,4.295-8.232,5.65-12.527,3.026c-0.318-0.194-0.619-0.404-0.904-0.63
						c-3.435,2.188-7.956,2.378-11.666,0.112C61.459,63.145,59.74,56.838,62.344,51.757z"/>
				</g>
			</g>
		</g>
		<g>
			<g>
				<g>
					<path class="st9" d="M31.25,61.469c-3.588-2.813-4.579-7.929-2.145-11.915c2.624-4.295,8.232-5.65,12.528-3.026
						c1.561,0.954,2.734,2.302,3.468,3.839c3.453-2.279,8.052-2.509,11.817-0.209c5.011,3.061,6.71,9.482,3.971,14.593
						c1.253,2.677,1.183,5.911-0.474,8.622c-2.623,4.295-8.232,5.65-12.527,3.026c-0.318-0.194-0.619-0.404-0.904-0.63
						c-3.435,2.188-7.956,2.378-11.666,0.112C30.365,72.856,28.646,66.549,31.25,61.469z"/>
				</g>
			</g>
		</g>
		<path class="st10" d="M65.334,41.073"/>
		<polygon class="st11" points="61.065,28.912 65.334,0 69.602,28.912 		"/>
		<polygon class="st12" points="65.334,0 64.488,5.727 65.353,28.912 69.602,28.912 		"/>
		<polygon class="st11" points="65.334,25.85 56.686,32.054 56.686,49.348 73.981,49.348 73.981,32.054 		"/>
		<polygon class="st12" points="65.336,25.85 63.211,27.374 64.258,28.125 56.686,33.557 56.686,35.746 65.335,29.541 
			69.734,32.697 69.734,49.348 73.983,49.348 73.983,32.054 		"/>
		<g>
			<polygon class="st13" points="76.073,35.057 65.334,27.352 54.594,35.057 53.171,33.073 65.334,24.347 77.496,33.073 			"/>
		</g>
		<polygon class="st11" points="65.334,41.073 33.962,55.982 33.962,82.384 96.705,82.384 96.705,55.982 		"/>
		<rect x="54.594" y="58.753" class="st14" width="21.479" height="23.631"/>
		<path class="st15" d="M76.073,64.304v-0.348h-2.124v-5.203h-0.348v5.203h-2.198v-5.203h-0.348v5.203H69.11v-5.203h-0.348v5.203
			h-2.367v-5.203h-2.123v5.203h-2.12v-5.203h-0.348v5.203h-2.198v-5.203h-0.348v5.203h-1.946v-5.203h-0.348v5.203h-2.372v0.348
			h2.372v5.203h-2.372v2.123h2.372v5.203h-2.372v0.348h2.372v5.203h0.348v-5.203h1.946v5.203h0.348v-5.203h2.198v5.203h0.348v-5.203
			h2.12v5.203h2.123v-5.203h2.367v5.203h0.348v-5.203h1.946v5.203h0.348v-5.203h2.198v5.203h0.348v-5.203h2.124v-0.348h-2.124V71.63
			h2.124v-2.123h-2.124v-5.203H76.073z M69.11,64.304h1.946v5.203H69.11V64.304z M68.762,64.304v5.203h-2.367v-5.203H68.762z
			 M62.153,64.304h2.12v5.203h-2.12V64.304z M59.607,64.304h2.198v5.203h-2.198V64.304z M57.314,64.304h1.946v5.203h-1.946V64.304z
			 M59.259,76.833h-1.946V71.63h1.946V76.833z M61.805,76.833h-2.198V71.63h2.198V76.833z M62.153,76.833V71.63h2.12v5.203H62.153z
			 M68.762,76.833h-2.367V71.63h2.367V76.833z M71.055,76.833H69.11V71.63h1.946V76.833z M73.601,76.833h-2.198V71.63h2.198V76.833z
			 M71.403,69.507v-5.203h2.198v5.203H71.403z"/>
		<rect x="66.395" y="69.507" class="st15" width="9.678" height="2.123"/>
		<rect x="64.272" y="71.63" class="st16" width="2.123" height="10.754"/>
		<polygon class="st15" points="52.357,82.384 54.594,82.384 54.594,58.753 76.09,58.753 76.09,82.384 78.328,82.384 78.328,56.516 
			76.802,56.516 76.09,56.516 52.357,56.516 		"/>
		<rect x="37.224" y="59.762" class="st17" width="12.015" height="7.144"/>
		<g>
			<path class="st15" d="M48.855,66.522H37.608v-6.377h11.247V66.522z M37.658,66.471h11.147v-6.275H37.658V66.471z"/>
		</g>
		<polygon class="st12" points="65.334,41.073 61.805,42.75 63.242,43.451 33.962,57.367 33.962,60.419 65.361,45.129 
			88.917,56.626 88.917,82.384 96.705,82.384 96.705,55.982 		"/>
		<g>
			<polyline class="st13" points="100.159,57.624 65.334,41.073 30.508,57.624 65.334,41.073 			"/>
			<polygon class="st13" points="99.622,58.753 65.334,42.457 31.045,58.753 29.971,56.494 65.334,39.689 100.696,56.494 			"/>
		</g>
		<rect x="65.334" y="56.516" class="st12" width="12.994" height="25.868"/>
		<rect x="45.814" y="59.762" class="st12" width="3.425" height="7.144"/>
		<g>
			<g>
				<path class="st18" d="M27.441,64.126h-3.176V81.15c1.124,1.222,2.188,1.325,3.176,0V64.126z"/>
				<g>
					<path class="st19" d="M15.555,54.879c-2.663-2.088-3.399-5.885-1.592-8.843c1.947-3.188,6.11-4.193,9.298-2.246
						c1.159,0.708,2.029,1.709,2.574,2.849c2.563-1.692,5.976-1.862,8.77-0.155c3.719,2.272,4.98,7.038,2.947,10.831
						c0.93,1.987,0.878,4.387-0.352,6.399c-1.947,3.188-6.11,4.193-9.298,2.246c-0.236-0.144-0.459-0.3-0.671-0.467
						c-2.55,1.624-5.905,1.765-8.658,0.083C14.899,63.33,13.623,58.649,15.555,54.879z"/>
				</g>
			</g>
		</g>
		<g>
			<g>
				<path class="st18" d="M99,63.815h3.176v17.024c-1.124,1.222-2.188,1.325-3.176,0V63.815z"/>
				<g>
					<path class="st19" d="M110.886,54.568c2.663-2.088,3.399-5.885,1.592-8.843c-1.947-3.188-6.11-4.193-9.298-2.246
						c-1.159,0.708-2.029,1.709-2.574,2.849c-2.563-1.692-5.976-1.862-8.77-0.155c-3.719,2.272-4.98,7.038-2.947,10.831
						c-0.93,1.987-0.878,4.387,0.352,6.399c1.947,3.188,6.11,4.193,9.298,2.246c0.236-0.144,0.46-0.3,0.671-0.467
						c2.55,1.624,5.905,1.765,8.658,0.083C111.542,63.019,112.818,58.338,110.886,54.568z"/>
				</g>
			</g>
		</g>
		<g>
			<g>
				<path class="st19" d="M22.839,73.896c-2.659,0-4.814,3.8-4.814,8.488h9.629C27.654,77.696,25.498,73.896,22.839,73.896z"/>
				<path class="st19" d="M16.644,78.581c-1.191,0-2.157,1.703-2.157,3.803h4.314C18.801,80.284,17.835,78.581,16.644,78.581z"/>
				<path class="st19" d="M11.657,76.015c-1.995,0-3.613,2.852-3.613,6.37h7.226C15.27,78.866,13.652,76.015,11.657,76.015z"/>
			</g>
		</g>
		<g>
			<g>
				<path class="st19" d="M113.583,73.896c-2.659,0-4.814,3.8-4.814,8.488h9.629C118.397,77.696,116.242,73.896,113.583,73.896z"/>
				<path class="st19" d="M107.387,78.581c-1.191,0-2.157,1.703-2.157,3.803h4.314C109.544,80.284,108.578,78.581,107.387,78.581z"
					/>
				<path class="st19" d="M102.4,76.015c-1.995,0-3.613,2.852-3.613,6.37h7.226C106.013,78.866,104.395,76.015,102.4,76.015z"/>
			</g>
		</g>
		<g>
			<g>
				<path class="st15" d="M39.653,61.929c-0.009,0.014-0.024,0.024-0.057,0.024c-0.081,0-0.176-0.005-0.286-0.005
					c-0.086,0-0.148,0-0.243,0.003c0,0-0.003-0.007-0.003-0.012c0-0.009,0.003-0.017,0.005-0.019
					c0.052-0.005,0.074-0.012,0.09-0.021c0.017-0.007,0.026-0.036,0.026-0.269v-0.188c0-0.233-0.009-0.262-0.026-0.269
					c-0.017-0.009-0.038-0.017-0.09-0.024c-0.003,0-0.005-0.012-0.005-0.019c0-0.005,0.003-0.009,0.003-0.009h0.357
					c0,0,0.003,0.005,0.003,0.009c0,0.007-0.003,0.019-0.005,0.019c-0.052,0.007-0.074,0.014-0.09,0.024
					c-0.017,0.007-0.026,0.036-0.026,0.269v0.188c0,0.155,0.012,0.226,0.029,0.245c0.014,0.014,0.033,0.024,0.11,0.024
					c0.074,0,0.124-0.019,0.155-0.055c0.029-0.033,0.05-0.088,0.059-0.128c0-0.003,0.005-0.003,0.009-0.003
					c0.009,0,0.024,0.003,0.024,0.007C39.684,61.786,39.665,61.91,39.653,61.929z"/>
				<path class="st15" d="M40.239,61.689h-0.303l-0.029,0.079c-0.024,0.064-0.029,0.093-0.029,0.112
					c0,0.021,0.019,0.033,0.074,0.038c0.003,0,0.005,0.007,0.005,0.014c0,0.007-0.003,0.017-0.005,0.017h-0.276
					c-0.003,0-0.005-0.007-0.005-0.014c0-0.007,0.003-0.014,0.005-0.017c0.041-0.003,0.064-0.009,0.083-0.024
					c0.026-0.019,0.055-0.067,0.131-0.267l0.071-0.186c0.041-0.107,0.083-0.219,0.117-0.319c0-0.005,0.014-0.007,0.029-0.007
					c0.014,0,0.029,0.003,0.031,0.007c0.033,0.1,0.069,0.186,0.107,0.286l0.086,0.219c0.095,0.243,0.114,0.255,0.138,0.269
					c0.024,0.014,0.043,0.019,0.081,0.021c0.003,0,0.003,0.005,0.003,0.012c0,0.009,0,0.019-0.003,0.019h-0.307
					c-0.002-0.001-0.002-0.01-0.002-0.02c0-0.007,0-0.012,0.003-0.012c0.041-0.003,0.067-0.012,0.067-0.031
					c0-0.014-0.007-0.038-0.036-0.11L40.239,61.689z M39.96,61.629h0.257l-0.131-0.338L39.96,61.629z"/>
				<path class="st15" d="M40.862,61.948c0,0-0.003-0.007-0.003-0.012c0-0.009,0.003-0.017,0.005-0.019
					c0.052-0.005,0.086-0.012,0.1-0.021c0.017-0.007,0.029-0.036,0.029-0.269v-0.186c0-0.233-0.012-0.262-0.029-0.269
					c-0.014-0.009-0.047-0.017-0.1-0.024c-0.003,0-0.005-0.012-0.005-0.019c0-0.005,0.003-0.009,0.003-0.009h0.379
					c0,0,0.003,0.005,0.003,0.009c0,0.007-0.003,0.019-0.005,0.019c-0.052,0.007-0.086,0.014-0.1,0.024
					c-0.017,0.007-0.029,0.036-0.029,0.269v0.186c0,0.233,0.012,0.262,0.029,0.269c0.014,0.009,0.047,0.017,0.1,0.021
					c0.003,0.003,0.005,0.009,0.005,0.019c0,0.005-0.003,0.012-0.003,0.012H40.862z"/>
				<path class="st15" d="M42.2,61.56c0.003,0,0.003,0.007,0.003,0.014c0,0.009,0,0.017-0.005,0.017
					c-0.05,0.005-0.067,0.009-0.083,0.021c-0.012,0.007-0.017,0.047-0.017,0.267v0.009c-0.071,0.043-0.193,0.071-0.3,0.071
					c-0.262,0-0.476-0.19-0.476-0.417c0-0.219,0.176-0.436,0.472-0.436c0.122,0,0.205,0.036,0.255,0.036
					c0.007,0,0.012,0,0.017-0.003c0.007,0,0.009,0.003,0.009,0.005c0.003,0.045,0.007,0.124,0.007,0.193
					c0,0.003-0.007,0.003-0.014,0.003c-0.009,0-0.019,0-0.019-0.005c-0.005-0.036-0.029-0.081-0.055-0.105
					c-0.047-0.045-0.133-0.076-0.221-0.076c-0.21,0-0.319,0.16-0.319,0.352c0,0.212,0.14,0.4,0.388,0.4
					c0.059,0,0.102-0.009,0.14-0.026c-0.003-0.233-0.009-0.262-0.021-0.269c-0.014-0.007-0.047-0.017-0.1-0.021
					c-0.003,0-0.005-0.007-0.005-0.014c0-0.007,0.003-0.017,0.005-0.017L42.2,61.56L42.2,61.56z"/>
				<path class="st15" d="M42.845,61.929c-0.009,0.014-0.024,0.024-0.057,0.024c-0.081,0-0.176-0.005-0.286-0.005
					c-0.086,0-0.148,0-0.243,0.003c0,0-0.003-0.007-0.003-0.012c0-0.009,0.003-0.017,0.005-0.019
					c0.052-0.005,0.074-0.012,0.09-0.021c0.017-0.007,0.026-0.036,0.026-0.269v-0.188c0-0.233-0.009-0.262-0.026-0.269
					c-0.017-0.009-0.038-0.017-0.09-0.024c-0.003,0-0.005-0.012-0.005-0.019c0-0.005,0.003-0.009,0.003-0.009h0.357
					c0,0,0.003,0.005,0.003,0.009c0,0.007-0.003,0.019-0.005,0.019c-0.052,0.007-0.074,0.014-0.09,0.024
					c-0.017,0.007-0.026,0.036-0.026,0.269v0.188c0,0.155,0.012,0.226,0.029,0.245c0.014,0.014,0.033,0.024,0.11,0.024
					c0.074,0,0.124-0.019,0.155-0.055c0.029-0.033,0.05-0.088,0.059-0.128c0-0.003,0.005-0.003,0.009-0.003
					c0.009,0,0.024,0.003,0.024,0.007C42.876,61.786,42.857,61.91,42.845,61.929z"/>
				<path class="st15" d="M43.509,61.929c-0.009,0.014-0.017,0.024-0.05,0.024c-0.081,0-0.176-0.005-0.286-0.005
					c-0.086,0-0.138,0-0.231,0.003c-0.003,0-0.005-0.007-0.005-0.014s0.003-0.014,0.005-0.017c0.052-0.005,0.076-0.012,0.09-0.021
					c0.017-0.007,0.029-0.038,0.029-0.271v-0.186c0-0.233-0.012-0.264-0.029-0.271c-0.014-0.009-0.038-0.017-0.09-0.024
					c-0.003,0-0.005-0.007-0.005-0.014c0-0.007,0.003-0.014,0.005-0.014c0.102,0.003,0.264,0.003,0.35,0.003
					c0.114,0,0.172-0.005,0.214-0.005c0.005,0,0.005,0.003,0.005,0.005c-0.005,0.043-0.007,0.105-0.014,0.172
					c0,0.003-0.007,0.005-0.014,0.005c-0.009,0-0.019-0.003-0.019-0.007c0-0.033-0.007-0.064-0.026-0.086
					c-0.021-0.021-0.059-0.033-0.152-0.033c-0.052,0-0.088,0.003-0.102,0.003c-0.005,0.014-0.005,0.057-0.005,0.138v0.181h0.098
					c0.126,0,0.143-0.029,0.15-0.074c0-0.003,0.009-0.003,0.017-0.003s0.017,0,0.017,0.003c-0.003,0.036-0.007,0.188-0.007,0.221
					c0,0.003-0.009,0.005-0.017,0.005c-0.009,0-0.017-0.003-0.017-0.005c0-0.024-0.005-0.057-0.019-0.069
					c-0.012-0.009-0.031-0.024-0.126-0.024h-0.095v0.081c0,0.155,0.012,0.228,0.029,0.248c0.017,0.014,0.033,0.024,0.112,0.024
					c0.081,0,0.126-0.019,0.15-0.045c0.019-0.019,0.033-0.045,0.043-0.088c0-0.003,0.005-0.003,0.007-0.003
					c0.007,0,0.019,0.005,0.017,0.007C43.531,61.836,43.519,61.91,43.509,61.929z"/>
				<path class="st15" d="M43.878,61.96c-0.124,0-0.21-0.062-0.212-0.076c-0.005-0.024-0.007-0.055-0.007-0.09
					c0-0.031,0.003-0.062,0.005-0.093c0-0.003,0.007-0.005,0.017-0.005c0.007,0,0.014,0.003,0.014,0.005
					c0.005,0.05,0.024,0.095,0.043,0.124c0.038,0.05,0.088,0.086,0.164,0.086c0.095,0,0.143-0.062,0.143-0.15
					c0-0.188-0.35-0.217-0.35-0.428c0-0.131,0.124-0.224,0.245-0.224c0.102,0,0.126,0.024,0.176,0.024
					c0.005,0,0.007,0.003,0.007,0.005c-0.003,0.024-0.003,0.05-0.003,0.081v0.098c0,0.003-0.009,0.005-0.017,0.005
					s-0.017-0.003-0.017-0.005c-0.003-0.041-0.021-0.09-0.043-0.112c-0.029-0.029-0.076-0.045-0.117-0.045
					c-0.074,0-0.128,0.05-0.128,0.128c0,0.16,0.362,0.217,0.362,0.426C44.162,61.872,44.011,61.96,43.878,61.96z"/>
				<path class="st15" d="M46.553,61.822c-0.09,0.088-0.19,0.128-0.357,0.128c-0.059,0-0.152-0.003-0.202-0.003
					c-0.047,0-0.119,0.003-0.176,0.003c-0.003,0-0.005-0.007-0.005-0.014c0-0.007,0.003-0.014,0.005-0.017
					c0.052-0.005,0.074-0.012,0.09-0.021c0.017-0.007,0.029-0.038,0.029-0.271v-0.186c0-0.233-0.012-0.264-0.029-0.271
					c-0.017-0.009-0.038-0.017-0.09-0.024c-0.003,0-0.005-0.007-0.005-0.014c0-0.007,0.003-0.014,0.005-0.014
					c0.057,0,0.128,0.003,0.176,0.003c0.05,0,0.172-0.003,0.228-0.003c0.267,0,0.466,0.176,0.466,0.407
					C46.69,61.634,46.635,61.743,46.553,61.822z M46.185,61.165c-0.081,0-0.102,0.012-0.112,0.024
					c-0.007,0.009-0.019,0.071-0.019,0.248v0.19c0,0.155,0.012,0.224,0.029,0.243c0.024,0.024,0.043,0.031,0.112,0.031
					c0.257,0,0.367-0.114,0.367-0.355C46.561,61.351,46.434,61.165,46.185,61.165z"/>
				<path class="st15" d="M47.354,61.929c-0.009,0.014-0.017,0.024-0.05,0.024c-0.081,0-0.176-0.005-0.286-0.005
					c-0.086,0-0.138,0-0.231,0.003c-0.003,0-0.005-0.007-0.005-0.014s0.003-0.014,0.005-0.017c0.052-0.005,0.076-0.012,0.09-0.021
					c0.017-0.007,0.029-0.038,0.029-0.271v-0.186c0-0.233-0.012-0.264-0.029-0.271c-0.014-0.009-0.038-0.017-0.09-0.024
					c-0.003,0-0.005-0.007-0.005-0.014c0-0.007,0.003-0.014,0.005-0.014c0.102,0.003,0.264,0.003,0.35,0.003
					c0.114,0,0.172-0.005,0.214-0.005c0.005,0,0.005,0.003,0.005,0.005c-0.005,0.043-0.007,0.105-0.014,0.172
					c0,0.003-0.007,0.005-0.014,0.005c-0.009,0-0.019-0.003-0.019-0.007c0-0.033-0.007-0.064-0.026-0.086
					c-0.021-0.021-0.059-0.033-0.152-0.033c-0.052,0-0.088,0.003-0.102,0.003c-0.005,0.014-0.005,0.057-0.005,0.138v0.181h0.098
					c0.126,0,0.143-0.029,0.15-0.074c0-0.003,0.009-0.003,0.017-0.003s0.017,0,0.017,0.003c-0.003,0.036-0.007,0.188-0.007,0.221
					c0,0.003-0.009,0.005-0.017,0.005c-0.009,0-0.017-0.003-0.017-0.005c0-0.024-0.005-0.057-0.019-0.069
					c-0.012-0.009-0.031-0.024-0.126-0.024h-0.095v0.081c0,0.155,0.012,0.228,0.029,0.248c0.017,0.014,0.033,0.024,0.112,0.024
					c0.081,0,0.126-0.019,0.15-0.045c0.019-0.019,0.033-0.045,0.043-0.088c0-0.003,0.005-0.003,0.007-0.003
					c0.007,0,0.019,0.005,0.017,0.007C47.375,61.836,47.363,61.91,47.354,61.929z"/>
				<path class="st15" d="M39.109,62.5c0.002,0,0.003,0.009,0.003,0.017c0,0.009-0.002,0.019-0.005,0.019
					c-0.066,0.007-0.109,0.012-0.13,0.024c-0.022,0.012-0.036,0.058-0.036,0.368v0.457c0,0.298-0.058,0.433-0.354,0.571
					l-0.005,0.002c-0.007,0-0.014-0.01-0.014-0.019c0-0.002,0-0.003,0.002-0.005c0.15-0.109,0.228-0.182,0.228-0.543v-0.462
					c0-0.31-0.015-0.356-0.036-0.368c-0.021-0.012-0.065-0.017-0.131-0.024c-0.003-0.002-0.005-0.012-0.005-0.021
					c0-0.009,0.002-0.015,0.003-0.015H39.109z"/>
				<path class="st15" d="M39.914,62.735c0,0.003-0.007,0.003-0.014,0.003c-0.01,0-0.024-0.002-0.024-0.009
					c0-0.041-0.012-0.089-0.039-0.116c-0.034-0.038-0.077-0.051-0.174-0.051c-0.066,0-0.13,0-0.145,0.003
					c-0.005,0.017-0.007,0.08-0.007,0.187v0.245h0.14c0.162,0,0.167-0.046,0.177-0.107c0-0.003,0.009-0.005,0.017-0.005
					c0.01,0,0.021,0.002,0.021,0.005l-0.01,0.307c0,0.002-0.009,0.003-0.017,0.003c-0.01,0-0.021-0.002-0.021-0.005
					c0-0.031-0.009-0.089-0.024-0.106c-0.015-0.015-0.024-0.026-0.145-0.026h-0.138v0.114c0,0.22,0.01,0.32,0.026,0.336
					s0.068,0.022,0.169,0.022c0.106,0,0.145-0.026,0.175-0.058c0.021-0.022,0.041-0.071,0.056-0.136c0-0.003,0.005-0.003,0.01-0.003
					c0.012,0,0.027,0.005,0.027,0.01c-0.009,0.107-0.027,0.232-0.029,0.235c-0.009,0.01-0.059,0.024-0.131,0.024
					c-0.102,0-0.155-0.005-0.297-0.005c-0.111,0-0.193,0.002-0.314,0.003c-0.002,0-0.003-0.007-0.003-0.015
					c0-0.009,0.002-0.022,0.005-0.024c0.066-0.007,0.106-0.012,0.126-0.024c0.021-0.012,0.036-0.058,0.036-0.368v-0.249
					c0-0.31-0.015-0.359-0.036-0.371s-0.059-0.017-0.126-0.024c-0.003-0.002-0.005-0.012-0.005-0.021
					c0-0.009,0.002-0.015,0.003-0.015c0.077,0.002,0.182,0.003,0.279,0.003h0.187c0.143,0,0.199-0.002,0.25-0.009
					c0.009,0,0.01,0.003,0.01,0.007C39.929,62.558,39.924,62.643,39.914,62.735z"/>
				<path class="st15" d="M40.41,63.628c-0.141,0-0.257-0.063-0.273-0.085c-0.002-0.003-0.012-0.118-0.012-0.208
					c0-0.022,0-0.043,0.002-0.059c0-0.005,0.01-0.007,0.021-0.007c0.009,0,0.019,0.002,0.019,0.007
					c0.003,0.065,0.036,0.151,0.059,0.187c0.043,0.065,0.116,0.107,0.22,0.107c0.118,0,0.182-0.078,0.182-0.201
					c0-0.269-0.448-0.283-0.448-0.593c0-0.162,0.131-0.3,0.31-0.3c0.118,0,0.143,0.033,0.201,0.033c0.007,0,0.014-0.002,0.024-0.002
					c0.005,0,0.007,0.002,0.007,0.005c0.002,0.039,0.002,0.097,0.002,0.158c0,0.031,0,0.063-0.002,0.094
					c0,0.002-0.007,0.003-0.015,0.003c-0.01,0-0.022-0.002-0.024-0.007c-0.005-0.068-0.021-0.128-0.053-0.165
					c-0.038-0.041-0.085-0.066-0.158-0.066c-0.092,0-0.162,0.08-0.162,0.186c0,0.23,0.455,0.286,0.455,0.581
					C40.764,63.509,40.582,63.628,40.41,63.628z"/>
				<path class="st15" d="M42.032,62.521c0,0.007-0.002,0.015-0.005,0.015c-0.066,0.007-0.101,0.012-0.119,0.029
					c-0.014,0.012-0.029,0.053-0.029,0.363v0.286c0,0.205-0.157,0.401-0.448,0.401c-0.266,0-0.428-0.175-0.428-0.397v-0.29
					c0-0.31-0.015-0.356-0.036-0.368c-0.022-0.012-0.051-0.017-0.118-0.024c-0.003-0.002-0.005-0.012-0.005-0.021
					s0.002-0.015,0.003-0.015h0.46c0.002,0,0.003,0.007,0.003,0.015s-0.002,0.019-0.005,0.021c-0.066,0.007-0.102,0.012-0.125,0.024
					c-0.021,0.012-0.036,0.058-0.036,0.368v0.259c0,0.187,0.118,0.342,0.342,0.342c0.21,0,0.314-0.158,0.314-0.324v-0.278
					c0-0.31-0.017-0.351-0.031-0.363c-0.019-0.017-0.058-0.022-0.126-0.029c-0.003,0-0.005-0.009-0.005-0.017
					c0-0.009,0.002-0.019,0.005-0.019h0.382C42.031,62.5,42.032,62.51,42.032,62.521z"/>
				<path class="st15" d="M43.034,62.814c-0.01,0-0.021-0.003-0.022-0.009c-0.007-0.07-0.029-0.128-0.07-0.172
					c-0.051-0.053-0.158-0.097-0.273-0.097c-0.297,0-0.412,0.239-0.412,0.481c0,0.278,0.175,0.545,0.436,0.545
					c0.126,0,0.208-0.036,0.266-0.107c0.036-0.045,0.056-0.095,0.071-0.146c0-0.003,0.005-0.005,0.01-0.005
					c0.012,0,0.027,0.005,0.027,0.01c-0.005,0.071-0.036,0.23-0.039,0.235c-0.005,0.009-0.119,0.08-0.339,0.08
					c-0.363,0-0.593-0.254-0.593-0.562c0-0.291,0.21-0.59,0.59-0.59c0.174,0,0.269,0.053,0.331,0.053
					c0.007,0,0.014-0.002,0.019-0.002c0.007,0,0.01,0.003,0.01,0.007l0.005,0.274C43.051,62.812,43.043,62.814,43.034,62.814z"/>
				<path class="st15" d="M45.192,63.628c-0.141,0-0.257-0.063-0.273-0.085c-0.002-0.003-0.012-0.118-0.012-0.208
					c0-0.022,0-0.043,0.002-0.059c0-0.005,0.01-0.007,0.021-0.007c0.009,0,0.019,0.002,0.019,0.007
					c0.003,0.065,0.036,0.151,0.059,0.187c0.043,0.065,0.116,0.107,0.22,0.107c0.118,0,0.182-0.078,0.182-0.201
					c0-0.269-0.448-0.283-0.448-0.593c0-0.162,0.131-0.3,0.31-0.3c0.118,0,0.143,0.033,0.201,0.033c0.007,0,0.014-0.002,0.024-0.002
					c0.005,0,0.007,0.002,0.007,0.005c0.002,0.039,0.002,0.097,0.002,0.158c0,0.031,0,0.063-0.002,0.094
					c0,0.002-0.007,0.003-0.015,0.003c-0.01,0-0.022-0.002-0.024-0.007c-0.005-0.068-0.021-0.128-0.053-0.165
					c-0.038-0.041-0.085-0.066-0.158-0.066c-0.092,0-0.162,0.08-0.162,0.186c0,0.23,0.455,0.286,0.455,0.581
					C45.546,63.509,45.364,63.628,45.192,63.628z"/>
				<path class="st15" d="M46.617,62.771c0,0.003-0.009,0.007-0.017,0.007c-0.01,0-0.021-0.003-0.021-0.01
					c0-0.043-0.005-0.125-0.034-0.155c-0.034-0.036-0.104-0.065-0.254-0.065c-0.039,0-0.059,0-0.077,0.003
					c-0.005,0.017-0.007,0.099-0.007,0.206v0.419c0,0.31,0.015,0.356,0.036,0.368s0.063,0.017,0.131,0.024
					c0.003,0.002,0.005,0.012,0.005,0.021c0,0.009-0.002,0.015-0.003,0.015h-0.481c-0.002,0-0.003-0.007-0.003-0.014
					c0-0.01,0.002-0.021,0.007-0.022c0.066-0.007,0.109-0.012,0.13-0.024c0.022-0.012,0.036-0.058,0.036-0.368v-0.419
					c0-0.107-0.002-0.189-0.007-0.206c-0.017-0.003-0.046-0.003-0.085-0.003c-0.16,0-0.215,0.017-0.254,0.065
					c-0.027,0.033-0.045,0.092-0.056,0.158c0,0.005-0.007,0.007-0.014,0.007c-0.01,0-0.024-0.003-0.024-0.01
					c0.01-0.089,0.021-0.218,0.026-0.276c0-0.003,0.005-0.007,0.014-0.007h0.007c0.059,0.01,0.169,0.015,0.465,0.015
					c0.407,0,0.445-0.009,0.475-0.019c0.002,0,0.005-0.002,0.007-0.002c0.007,0,0.012,0.005,0.012,0.009
					C46.63,62.553,46.627,62.681,46.617,62.771z"/>
				<path class="st15" d="M47.242,63.628c-0.312,0-0.559-0.254-0.559-0.562c0-0.305,0.235-0.59,0.584-0.59
					c0.312,0,0.559,0.254,0.559,0.562C47.826,63.344,47.592,63.628,47.242,63.628z M47.234,62.538c-0.298,0-0.395,0.259-0.395,0.479
					c0,0.278,0.17,0.55,0.438,0.55c0.298,0,0.395-0.259,0.395-0.479C47.672,62.81,47.5,62.538,47.234,62.538z"/>
				<path class="st15" d="M39.889,64.347c0-0.132-0.009-0.146-0.021-0.151c-0.011-0.006-0.025-0.011-0.06-0.016
					c-0.003,0-0.003-0.005-0.003-0.009s0-0.018,0.002-0.018h0.011c0.019,0,0.078,0.003,0.122,0.003c0.067,0,0.138-0.005,0.173-0.005
					c0.192,0,0.308,0.121,0.308,0.275c0,0.073-0.035,0.144-0.089,0.197c-0.06,0.059-0.133,0.09-0.244,0.09
					c-0.032,0-0.081-0.005-0.116-0.005c-0.059,0-0.125,0.002-0.165,0.002c-0.002,0-0.002-0.011-0.002-0.016s0-0.009,0.003-0.011
					c0.035-0.003,0.052-0.009,0.063-0.016c0.011-0.005,0.018-0.018,0.018-0.173L39.889,64.347L39.889,64.347z M39.988,64.328v0.187
					c0,0.087,0.008,0.122,0.019,0.133c0.016,0.016,0.033,0.021,0.079,0.021c0.138,0,0.22-0.068,0.22-0.229
					c0-0.13-0.073-0.246-0.214-0.246c-0.067,0-0.086,0.009-0.092,0.018C39.996,64.218,39.988,64.242,39.988,64.328z"/>
				<path class="st15" d="M40.679,64.315v0.083h0.062c0.084,0,0.095-0.022,0.1-0.052c0-0.002,0.006-0.002,0.011-0.002
					c0.005,0,0.014,0,0.014,0.002c-0.002,0.024-0.005,0.135-0.005,0.157c0,0.002-0.009,0.003-0.014,0.003
					c-0.006,0-0.011-0.002-0.011-0.003c0-0.016-0.003-0.038-0.013-0.046c-0.008-0.006-0.021-0.016-0.084-0.016h-0.06v0.092
					c0,0.074,0.008,0.108,0.019,0.121c0.011,0.009,0.022,0.016,0.074,0.016c0.054,0,0.084-0.013,0.1-0.03
					c0.013-0.013,0.022-0.04,0.029-0.068c0-0.002,0.011-0.002,0.013-0.002c0.005,0,0.013,0.003,0.011,0.005
					c-0.003,0.045-0.011,0.11-0.018,0.122c-0.006,0.009-0.011,0.018-0.033,0.018c-0.054,0-0.111-0.005-0.227-0.005
					c-0.032,0-0.138,0.003-0.152,0.003c-0.002,0-0.002-0.011-0.002-0.016s0-0.011,0.003-0.013c0.035-0.003,0.056-0.009,0.067-0.016
					c0.011-0.005,0.018-0.018,0.018-0.173v-0.124c0-0.155-0.006-0.168-0.018-0.173c-0.011-0.006-0.032-0.013-0.067-0.018
					c-0.003,0-0.003-0.006-0.003-0.011s0.002-0.018,0.003-0.018h0.021c0.059,0,0.117,0.005,0.176,0.005
					c0.043,0,0.139-0.005,0.192-0.005c0.006,0,0.014,0.002,0.016,0.006c-0.003,0.029-0.005,0.076-0.009,0.121
					c0,0.002-0.013,0.003-0.018,0.003c-0.006,0-0.013-0.002-0.013-0.005c0-0.022-0.005-0.046-0.018-0.06
					c-0.014-0.014-0.04-0.021-0.101-0.021c-0.035,0-0.051,0.002-0.06,0.002C40.679,64.207,40.679,64.269,40.679,64.315z"/>
				<path class="st15" d="M41.547,64.169c0,0.005-0.002,0.013-0.003,0.013c-0.035,0.005-0.049,0.009-0.06,0.016
					c-0.011,0.005-0.019,0.018-0.019,0.173v0.154c0,0.121,0,0.144,0.079,0.144c0.049,0,0.095-0.006,0.116-0.03
					c0.019-0.022,0.032-0.059,0.038-0.086c0-0.002,0.013-0.002,0.016-0.002c0.006,0,0.016,0.002,0.016,0.005
					c-0.005,0.045-0.018,0.127-0.025,0.139c-0.006,0.009-0.016,0.018-0.038,0.018c-0.043,0-0.13-0.005-0.192-0.005
					c-0.063,0-0.139,0.003-0.193,0.005c-0.002,0-0.002-0.009-0.002-0.014s0-0.014,0.003-0.016c0.035-0.003,0.056-0.009,0.067-0.016
					c0.011-0.005,0.018-0.018,0.018-0.173v-0.124c0-0.155-0.006-0.168-0.018-0.173c-0.011-0.006-0.032-0.011-0.067-0.016
					c-0.003,0-0.003-0.005-0.003-0.009s0-0.016,0.002-0.016h0.265C41.546,64.157,41.547,64.166,41.547,64.169z"/>
				<path class="st15" d="M42.09,64.716c-0.175,0-0.301-0.125-0.301-0.281c0-0.148,0.127-0.287,0.312-0.287
					c0.175,0,0.301,0.121,0.301,0.276C42.402,64.572,42.275,64.716,42.09,64.716z M42.084,64.191c-0.139,0-0.181,0.122-0.181,0.222
					c0,0.13,0.074,0.26,0.205,0.26c0.139,0,0.181-0.127,0.181-0.227C42.288,64.317,42.212,64.191,42.084,64.191z"/>
				<path class="st15" d="M42.661,64.716c-0.083,0-0.152-0.041-0.154-0.051c-0.003-0.016-0.005-0.036-0.005-0.06
					c0-0.021,0.002-0.06,0.003-0.081c0-0.002,0.008-0.003,0.014-0.003c0.005,0,0.014,0.002,0.014,0.003
					c0.003,0.033,0.016,0.073,0.029,0.092c0.025,0.033,0.056,0.057,0.106,0.057c0.052,0,0.095-0.032,0.095-0.09
					c0-0.125-0.248-0.144-0.248-0.285c0-0.087,0.074-0.149,0.186-0.149c0.068,0,0.1,0.016,0.133,0.016
					c0.003,0,0.006,0.002,0.006,0.003c-0.002,0.016-0.002,0.033-0.002,0.054v0.074c0,0.002-0.008,0.003-0.013,0.003
					s-0.018-0.002-0.018-0.003c-0.002-0.027-0.014-0.06-0.029-0.074c-0.019-0.019-0.06-0.03-0.087-0.03
					c-0.035,0-0.076,0.024-0.076,0.076c0,0.106,0.248,0.144,0.248,0.284C42.866,64.658,42.779,64.716,42.661,64.716z"/>
				<path class="st15" d="M43.38,64.716c-0.083,0-0.152-0.041-0.154-0.051c-0.003-0.016-0.005-0.036-0.005-0.06
					c0-0.021,0.002-0.06,0.003-0.081c0-0.002,0.008-0.003,0.014-0.003c0.005,0,0.014,0.002,0.014,0.003
					c0.003,0.033,0.016,0.073,0.029,0.092c0.025,0.033,0.056,0.057,0.106,0.057c0.052,0,0.095-0.032,0.095-0.09
					c0-0.125-0.248-0.144-0.248-0.285c0-0.087,0.074-0.149,0.186-0.149c0.068,0,0.1,0.016,0.133,0.016
					c0.003,0,0.006,0.002,0.006,0.003c-0.002,0.016-0.002,0.033-0.002,0.054v0.074c0,0.002-0.008,0.003-0.013,0.003
					s-0.018-0.002-0.018-0.003c-0.002-0.027-0.014-0.06-0.029-0.074c-0.019-0.019-0.06-0.03-0.087-0.03
					c-0.035,0-0.076,0.024-0.076,0.076c0,0.106,0.248,0.144,0.248,0.284C43.584,64.658,43.497,64.716,43.38,64.716z"/>
				<path class="st15" d="M45.311,64.667c0.011,0.006,0.029,0.011,0.063,0.014c0.002,0.002,0.003,0.006,0.003,0.013
					c0,0.003-0.002,0.014-0.002,0.014h-0.265c-0.002,0-0.002-0.011-0.002-0.016s0-0.009,0.003-0.011
					c0.035-0.003,0.052-0.008,0.063-0.014c0.011-0.005,0.018-0.018,0.018-0.173v-0.187c0-0.054,0-0.1-0.003-0.11
					c-0.008,0-0.024-0.002-0.043-0.002c-0.09,0-0.108,0.013-0.128,0.032c-0.014,0.013-0.022,0.048-0.027,0.068
					c0,0.002-0.002,0.002-0.005,0.002c-0.006,0-0.025-0.003-0.025-0.005l0.013-0.143c0-0.002,0.003-0.006,0.006-0.006
					c0.032,0.005,0.111,0.013,0.264,0.013c0.209,0,0.249-0.008,0.265-0.014c0.003,0,0.006,0.005,0.006,0.006
					c0,0.033-0.002,0.101-0.008,0.148c0,0-0.013,0.002-0.018,0.002c-0.006,0-0.013-0.002-0.013-0.003
					c0-0.022-0.005-0.054-0.016-0.067c-0.016-0.018-0.032-0.032-0.127-0.032c-0.019,0-0.03,0.002-0.038,0.002
					c-0.003,0.009-0.005,0.056-0.005,0.11v0.187C45.292,64.65,45.3,64.663,45.311,64.667z"/>
				<path class="st15" d="M45.866,64.716c-0.175,0-0.301-0.125-0.301-0.281c0-0.148,0.127-0.287,0.312-0.287
					c0.175,0,0.301,0.121,0.301,0.276C46.179,64.572,46.052,64.716,45.866,64.716z M45.859,64.191c-0.139,0-0.181,0.122-0.181,0.222
					c0,0.13,0.074,0.26,0.205,0.26c0.139,0,0.181-0.127,0.181-0.227C46.064,64.317,45.988,64.191,45.859,64.191z"/>
				<path class="st15" d="M46.437,64.716c-0.083,0-0.152-0.041-0.154-0.051c-0.003-0.016-0.005-0.036-0.005-0.06
					c0-0.021,0.002-0.06,0.003-0.081c0-0.002,0.008-0.003,0.014-0.003c0.005,0,0.014,0.002,0.014,0.003
					c0.003,0.033,0.016,0.073,0.029,0.092c0.025,0.033,0.056,0.057,0.106,0.057c0.052,0,0.095-0.032,0.095-0.09
					c0-0.125-0.248-0.144-0.248-0.285c0-0.087,0.074-0.149,0.186-0.149c0.068,0,0.1,0.016,0.133,0.016
					c0.003,0,0.006,0.002,0.006,0.003c-0.002,0.016-0.002,0.033-0.002,0.054v0.074c0,0.002-0.008,0.003-0.013,0.003
					s-0.018-0.002-0.018-0.003c-0.002-0.027-0.014-0.06-0.029-0.074c-0.019-0.019-0.06-0.03-0.087-0.03
					c-0.035,0-0.076,0.024-0.076,0.076c0,0.106,0.248,0.144,0.248,0.284C46.642,64.658,46.554,64.716,46.437,64.716z"/>
				<path class="st15" d="M38.453,65.359c0-0.132-0.009-0.146-0.021-0.151c-0.011-0.006-0.025-0.011-0.06-0.016
					c-0.003,0-0.003-0.005-0.003-0.009s0-0.018,0.002-0.018h0.011c0.019,0,0.078,0.003,0.122,0.003c0.067,0,0.138-0.005,0.173-0.005
					c0.192,0,0.308,0.121,0.308,0.274c0,0.073-0.035,0.144-0.089,0.197c-0.06,0.059-0.133,0.09-0.244,0.09
					c-0.032,0-0.081-0.005-0.116-0.005c-0.059,0-0.125,0.002-0.165,0.002c-0.002,0-0.002-0.011-0.002-0.016s0-0.009,0.003-0.011
					c0.035-0.003,0.052-0.009,0.063-0.016c0.011-0.005,0.018-0.018,0.018-0.173L38.453,65.359L38.453,65.359z M38.552,65.34v0.187
					c0,0.087,0.008,0.122,0.019,0.133c0.016,0.016,0.033,0.021,0.079,0.021c0.138,0,0.22-0.068,0.22-0.228
					c0-0.13-0.073-0.246-0.214-0.246c-0.067,0-0.086,0.009-0.092,0.018C38.56,65.23,38.552,65.254,38.552,65.34z"/>
				<path class="st15" d="M39.244,65.327v0.083h0.062c0.084,0,0.095-0.022,0.1-0.052c0-0.002,0.006-0.002,0.011-0.002
					s0.014,0,0.014,0.002c-0.002,0.024-0.005,0.135-0.005,0.157c0,0.002-0.009,0.003-0.014,0.003c-0.006,0-0.011-0.002-0.011-0.003
					c0-0.016-0.003-0.038-0.013-0.046c-0.008-0.006-0.021-0.016-0.084-0.016h-0.06v0.092c0,0.074,0.008,0.108,0.019,0.121
					c0.011,0.009,0.022,0.016,0.074,0.016c0.054,0,0.084-0.013,0.1-0.03c0.013-0.013,0.022-0.04,0.029-0.068
					c0-0.002,0.011-0.002,0.013-0.002c0.005,0,0.013,0.003,0.011,0.005c-0.003,0.045-0.011,0.11-0.018,0.122
					c-0.006,0.009-0.011,0.018-0.033,0.018c-0.054,0-0.111-0.005-0.227-0.005c-0.032,0-0.138,0.003-0.152,0.003
					c-0.002,0-0.002-0.011-0.002-0.016s0-0.011,0.003-0.013c0.035-0.003,0.056-0.009,0.067-0.016
					c0.011-0.005,0.018-0.018,0.018-0.173v-0.124c0-0.155-0.006-0.168-0.018-0.173c-0.011-0.006-0.032-0.013-0.067-0.018
					c-0.003,0-0.003-0.006-0.003-0.011s0.002-0.018,0.003-0.018h0.021c0.059,0,0.117,0.005,0.176,0.005
					c0.043,0,0.139-0.005,0.192-0.005c0.006,0,0.014,0.002,0.016,0.006c-0.003,0.029-0.005,0.076-0.009,0.121
					c0,0.002-0.013,0.003-0.018,0.003c-0.006,0-0.013-0.002-0.013-0.005c0-0.022-0.005-0.046-0.018-0.06
					c-0.014-0.014-0.04-0.021-0.101-0.021c-0.035,0-0.051,0.002-0.06,0.002C39.244,65.219,39.244,65.281,39.244,65.327z"/>
				<path class="st15" d="M40.112,65.181c0,0.005-0.002,0.013-0.003,0.013c-0.035,0.005-0.049,0.009-0.06,0.016
					c-0.011,0.005-0.019,0.018-0.019,0.173v0.154c0,0.121,0,0.144,0.079,0.144c0.049,0,0.095-0.006,0.116-0.03
					c0.019-0.022,0.032-0.059,0.038-0.086c0-0.002,0.013-0.002,0.016-0.002c0.006,0,0.016,0.002,0.016,0.005
					c-0.005,0.045-0.018,0.127-0.025,0.139c-0.006,0.009-0.016,0.018-0.038,0.018c-0.043,0-0.13-0.005-0.192-0.005
					c-0.063,0-0.139,0.003-0.193,0.005c-0.002,0-0.002-0.009-0.002-0.014s0-0.014,0.003-0.016c0.035-0.003,0.056-0.009,0.067-0.016
					c0.011-0.005,0.018-0.018,0.018-0.173v-0.124c0-0.155-0.006-0.168-0.018-0.173c-0.011-0.006-0.032-0.011-0.067-0.016
					c-0.003,0-0.003-0.005-0.003-0.009s0-0.016,0.002-0.016h0.265C40.11,65.169,40.112,65.178,40.112,65.181z"/>
				<path class="st15" d="M40.654,65.728c-0.175,0-0.301-0.125-0.301-0.281c0-0.148,0.127-0.287,0.312-0.287
					c0.175,0,0.301,0.121,0.301,0.276C40.966,65.584,40.84,65.728,40.654,65.728z M40.648,65.203c-0.139,0-0.181,0.122-0.181,0.222
					c0,0.13,0.074,0.26,0.205,0.26c0.139,0,0.181-0.127,0.181-0.227C40.852,65.329,40.776,65.203,40.648,65.203z"/>
				<path class="st15" d="M41.225,65.728c-0.083,0-0.152-0.041-0.154-0.051c-0.003-0.016-0.005-0.036-0.005-0.06
					c0-0.021,0.002-0.06,0.003-0.081c0-0.002,0.008-0.003,0.014-0.003c0.005,0,0.014,0.002,0.014,0.003
					c0.003,0.033,0.016,0.073,0.029,0.092c0.025,0.033,0.056,0.057,0.106,0.057c0.052,0,0.095-0.032,0.095-0.09
					c0-0.125-0.248-0.144-0.248-0.285c0-0.087,0.074-0.149,0.186-0.149c0.068,0,0.1,0.016,0.133,0.016
					c0.003,0,0.006,0.002,0.006,0.003c-0.002,0.016-0.002,0.033-0.002,0.054v0.074c0,0.002-0.008,0.003-0.013,0.003
					c-0.005,0-0.018-0.002-0.018-0.003c-0.002-0.027-0.014-0.06-0.029-0.074c-0.019-0.019-0.06-0.03-0.087-0.03
					c-0.035,0-0.076,0.024-0.076,0.076c0,0.106,0.248,0.145,0.248,0.284C41.43,65.67,41.343,65.728,41.225,65.728z"/>
				<path class="st15" d="M42.326,65.21c-0.005,0.005-0.009,0.041-0.009,0.151v0.162c0,0.103-0.076,0.206-0.233,0.206
					s-0.238-0.092-0.238-0.205v-0.143c0-0.151-0.006-0.168-0.009-0.17c-0.013-0.008-0.029-0.014-0.06-0.018
					c-0.009,0-0.009-0.005-0.009-0.013c0-0.006,0.002-0.013,0.011-0.013h0.238c0.009,0,0.009,0.002,0.009,0.013
					c0,0.008-0.002,0.013-0.009,0.013c-0.032,0.005-0.049,0.011-0.062,0.019c-0.002,0.002-0.009,0.018-0.009,0.168v0.127
					c0,0.101,0.062,0.166,0.16,0.166c0.095,0,0.154-0.067,0.154-0.157V65.36c0-0.116-0.008-0.146-0.013-0.151
					c-0.008-0.008-0.024-0.011-0.052-0.016c-0.014,0-0.014-0.005-0.014-0.011c0-0.006,0-0.014,0.014-0.014h0.187
					c0.009,0,0.009,0.008,0.009,0.014c0,0.008-0.005,0.011-0.014,0.011C42.347,65.197,42.336,65.202,42.326,65.21z M42.18,64.972
					c0.011,0.019,0.029,0.056,0.029,0.06c0,0.006-0.005,0.011-0.013,0.011c-0.032,0-0.065,0.006-0.098,0.018l-0.046,0.014
					c-0.021,0.006-0.029,0.011-0.045,0.011c-0.011,0-0.014-0.006-0.014-0.013c0-0.006,0.002-0.013,0.009-0.018l0.141-0.09
					c0.006-0.005,0.014-0.008,0.018-0.008C42.168,64.957,42.174,64.963,42.18,64.972z"/>
				<path class="st15" d="M42.717,65.181c0,0.005-0.002,0.013-0.003,0.013c-0.035,0.005-0.049,0.009-0.06,0.016
					c-0.011,0.005-0.019,0.018-0.019,0.173v0.154c0,0.121,0,0.144,0.079,0.144c0.049,0,0.095-0.006,0.116-0.03
					c0.019-0.022,0.032-0.059,0.038-0.086c0-0.002,0.013-0.002,0.016-0.002c0.006,0,0.016,0.002,0.016,0.005
					c-0.005,0.045-0.018,0.127-0.025,0.139c-0.006,0.009-0.016,0.018-0.038,0.018c-0.043,0-0.13-0.005-0.192-0.005
					c-0.063,0-0.139,0.003-0.193,0.005c-0.002,0-0.002-0.009-0.002-0.014s0-0.014,0.003-0.016c0.035-0.003,0.056-0.009,0.067-0.016
					c0.011-0.005,0.018-0.018,0.018-0.173v-0.124c0-0.155-0.006-0.168-0.018-0.173c-0.011-0.006-0.032-0.011-0.067-0.016
					c-0.003,0-0.003-0.005-0.003-0.009s0-0.016,0.002-0.016h0.265C42.715,65.169,42.717,65.178,42.717,65.181z"/>
				<path class="st15" d="M43.23,65.68c0.011,0.006,0.029,0.011,0.063,0.014c0.002,0.002,0.003,0.006,0.003,0.013
					c0,0.003-0.002,0.014-0.002,0.014H43.03c-0.002,0-0.002-0.011-0.002-0.016c0-0.005,0-0.009,0.003-0.011
					c0.035-0.003,0.052-0.008,0.063-0.014c0.011-0.005,0.018-0.018,0.018-0.173v-0.187c0-0.054,0-0.1-0.003-0.11
					c-0.008,0-0.024-0.002-0.043-0.002c-0.09,0-0.108,0.013-0.128,0.032c-0.014,0.013-0.022,0.047-0.027,0.068
					c0,0.002-0.002,0.002-0.005,0.002c-0.006,0-0.025-0.003-0.025-0.005l0.013-0.143c0-0.002,0.003-0.006,0.006-0.006
					c0.032,0.005,0.111,0.013,0.264,0.013c0.209,0,0.249-0.008,0.265-0.014c0.003,0,0.006,0.005,0.006,0.006
					c0,0.033-0.002,0.101-0.008,0.148c0,0-0.013,0.002-0.018,0.002c-0.006,0-0.013-0.002-0.013-0.003
					c0-0.022-0.005-0.054-0.016-0.067c-0.016-0.018-0.032-0.032-0.127-0.032c-0.019,0-0.03,0.002-0.038,0.002
					c-0.003,0.009-0.005,0.056-0.005,0.11v0.187C43.212,65.662,43.22,65.675,43.23,65.68z"/>
				<path class="st15" d="M43.694,65.506c0,0.155,0.008,0.168,0.019,0.173c0.011,0.006,0.029,0.011,0.063,0.014
					c0.002,0.002,0.003,0.006,0.003,0.013c0,0.003-0.002,0.014-0.002,0.014h-0.268c-0.002,0-0.002-0.011-0.002-0.016
					s0-0.009,0.003-0.011c0.035-0.003,0.056-0.008,0.067-0.014c0.011-0.005,0.018-0.018,0.018-0.173v-0.124
					c0-0.155-0.009-0.168-0.021-0.173c-0.011-0.006-0.029-0.011-0.063-0.016c-0.003,0-0.003-0.005-0.003-0.009s0-0.016,0.002-0.016
					h0.268c0,0,0.002,0.009,0.002,0.013c0,0.005-0.002,0.013-0.003,0.013c-0.035,0.005-0.052,0.009-0.063,0.016
					c-0.011,0.005-0.019,0.018-0.019,0.173L43.694,65.506L43.694,65.506z"/>
				<path class="st15" d="M44.386,65.721c-0.002,0-0.006-0.006-0.006-0.013c0-0.005,0.002-0.014,0.003-0.014
					c0.024-0.002,0.043-0.005,0.052-0.011c0.005-0.003,0.008-0.014,0.008-0.033c0-0.038-0.006-0.087-0.008-0.105l-0.021-0.186
					l-0.179,0.367c0,0.003-0.008,0.003-0.014,0.003c-0.008,0-0.024,0-0.024-0.003l-0.198-0.384l-0.016,0.16
					c-0.006,0.059-0.008,0.097-0.008,0.124c0,0.052,0.018,0.065,0.073,0.068c0.002,0,0.003,0.005,0.003,0.009
					s-0.002,0.018-0.003,0.018h-0.224c0,0-0.002-0.009-0.002-0.013c0-0.006,0.002-0.013,0.005-0.014
					c0.035-0.003,0.054-0.008,0.063-0.016c0.006-0.005,0.021-0.016,0.035-0.171l0.011-0.124c0.006-0.071,0.014-0.152,0.018-0.219
					c0-0.002,0.018-0.005,0.025-0.005c0.005,0,0.032,0.002,0.032,0.003l0.228,0.427l0.209-0.427
					c0.002-0.002,0.022-0.003,0.027-0.003c0.009,0,0.029,0.003,0.029,0.005c0.005,0.074,0.009,0.141,0.019,0.219l0.014,0.124
					c0.018,0.155,0.024,0.168,0.033,0.173c0.011,0.006,0.027,0.011,0.062,0.014c0.002,0.002,0.003,0.014,0.003,0.014
					c0,0.009-0.002,0.013-0.003,0.013H44.386L44.386,65.721z"/>
				<path class="st15" d="M44.984,65.728c-0.175,0-0.301-0.125-0.301-0.281c0-0.148,0.127-0.287,0.312-0.287
					c0.175,0,0.301,0.121,0.301,0.276C45.296,65.584,45.17,65.728,44.984,65.728z M44.978,65.203c-0.139,0-0.181,0.122-0.181,0.222
					c0,0.13,0.074,0.26,0.205,0.26c0.139,0,0.181-0.127,0.181-0.227C45.182,65.329,45.106,65.203,44.978,65.203z"/>
				<path class="st15" d="M45.555,65.728c-0.083,0-0.152-0.041-0.154-0.051c-0.003-0.016-0.005-0.036-0.005-0.06
					c0-0.021,0.002-0.06,0.003-0.081c0-0.002,0.008-0.003,0.014-0.003c0.005,0,0.014,0.002,0.014,0.003
					c0.003,0.033,0.016,0.073,0.029,0.092c0.025,0.033,0.056,0.057,0.106,0.057c0.052,0,0.095-0.032,0.095-0.09
					c0-0.125-0.248-0.144-0.248-0.285c0-0.087,0.074-0.149,0.186-0.149c0.068,0,0.1,0.016,0.133,0.016
					c0.003,0,0.006,0.002,0.006,0.003c-0.002,0.016-0.002,0.033-0.002,0.054v0.074c0,0.002-0.008,0.003-0.013,0.003
					s-0.018-0.002-0.018-0.003c-0.002-0.027-0.014-0.06-0.029-0.074c-0.019-0.019-0.06-0.03-0.087-0.03
					c-0.035,0-0.076,0.024-0.076,0.076c0,0.106,0.248,0.145,0.248,0.284C45.76,65.67,45.672,65.728,45.555,65.728z"/>
				<path class="st15" d="M46.199,65.359c0-0.132-0.009-0.146-0.021-0.151c-0.011-0.006-0.025-0.011-0.06-0.016
					c-0.003,0-0.003-0.005-0.003-0.009s0-0.018,0.002-0.018h0.011c0.019,0,0.078,0.003,0.122,0.003c0.067,0,0.138-0.005,0.173-0.005
					c0.192,0,0.308,0.121,0.308,0.274c0,0.073-0.035,0.144-0.089,0.197c-0.06,0.059-0.133,0.09-0.244,0.09
					c-0.032,0-0.081-0.005-0.116-0.005c-0.059,0-0.125,0.002-0.165,0.002c-0.002,0-0.002-0.011-0.002-0.016s0-0.009,0.003-0.011
					c0.035-0.003,0.052-0.009,0.063-0.016c0.011-0.005,0.018-0.018,0.018-0.173L46.199,65.359L46.199,65.359z M46.298,65.34v0.187
					c0,0.087,0.008,0.122,0.019,0.133c0.016,0.016,0.033,0.021,0.079,0.021c0.138,0,0.22-0.068,0.22-0.228
					c0-0.13-0.073-0.246-0.214-0.246c-0.067,0-0.086,0.009-0.092,0.018C46.305,65.23,46.298,65.254,46.298,65.34z"/>
				<path class="st15" d="M47.905,65.728c-0.083,0-0.152-0.041-0.154-0.051c-0.003-0.016-0.005-0.036-0.005-0.06
					c0-0.021,0.002-0.06,0.003-0.081c0-0.002,0.008-0.003,0.014-0.003c0.005,0,0.014,0.002,0.014,0.003
					c0.003,0.033,0.016,0.073,0.029,0.092c0.025,0.033,0.056,0.057,0.106,0.057c0.052,0,0.095-0.032,0.095-0.09
					c0-0.125-0.248-0.144-0.248-0.285c0-0.087,0.074-0.149,0.186-0.149c0.068,0,0.1,0.016,0.133,0.016
					c0.003,0,0.006,0.002,0.006,0.003c-0.002,0.016-0.002,0.033-0.002,0.054v0.074c0,0.002-0.008,0.003-0.013,0.003
					c-0.005,0-0.018-0.002-0.018-0.003c-0.002-0.027-0.014-0.06-0.029-0.074c-0.019-0.019-0.06-0.03-0.087-0.03
					c-0.035,0-0.076,0.024-0.076,0.076c0,0.106,0.248,0.145,0.248,0.284C48.109,65.67,48.022,65.728,47.905,65.728z"/>
			</g>
			<path class="st15" d="M44.63,63.544c-0.021-0.012-0.036-0.058-0.036-0.368v-0.249c0-0.31,0.015-0.356,0.036-0.368
				c0.021-0.012,0.063-0.017,0.131-0.024c0.003-0.002,0.005-0.012,0.005-0.021S44.764,62.5,44.763,62.5h-0.479
				c-0.003,0-0.005,0.007-0.005,0.015s0.002,0.019,0.007,0.021c0.066,0.007,0.109,0.012,0.13,0.024
				c0.022,0.012,0.036,0.058,0.036,0.368v0.249c0,0.31-0.014,0.356-0.036,0.368c-0.009,0.005-0.023,0.009-0.04,0.012
				c-0.03,0.005-0.041,0.005-0.064,0.005c-0.119,0-0.244-0.131-0.47-0.472c0.119-0.073,0.205-0.186,0.205-0.322
				c0-0.13-0.128-0.271-0.382-0.271c-0.077,0-0.145,0.003-0.208,0.003s-0.15-0.003-0.225-0.003c-0.003,0-0.005,0.009-0.005,0.017
				c0,0.009,0.002,0.019,0.007,0.019c0.066,0.007,0.095,0.012,0.116,0.024c0.022,0.012,0.036,0.061,0.036,0.371v0.249
				c0,0.31-0.014,0.356-0.036,0.368c-0.021,0.012-0.049,0.017-0.116,0.024c-0.005,0.002-0.007,0.01-0.007,0.019
				c0,0.009,0.002,0.017,0.005,0.017h0.482c0.002,0,0.003-0.007,0.003-0.015c0-0.009-0.002-0.019-0.005-0.021
				c-0.075-0.009-0.126-0.012-0.148-0.024c-0.021-0.012-0.036-0.058-0.036-0.368v-0.044c0.038,0.002,0.066,0.003,0.099,0.003
				c0.024,0,0.049-0.002,0.083-0.002c0.138,0.234,0.23,0.356,0.317,0.416c0.066,0.044,0.132,0.055,0.236,0.055
				c0.039,0,0.071,0,0.108,0h0.392c0.002,0,0.003-0.007,0.003-0.015c0-0.009-0.002-0.019-0.005-0.021
				C44.693,63.562,44.65,63.556,44.63,63.544z M43.678,63.074c-0.082,0-0.13-0.007-0.142-0.019c-0.007-0.007-0.01-0.026-0.01-0.128
				c0-0.247,0.01-0.347,0.017-0.358c0.007-0.007,0.058-0.015,0.116-0.015c0.163,0,0.223,0.118,0.223,0.281
				C43.883,62.969,43.818,63.074,43.678,63.074z"/>
			<path class="st15" d="M45.53,61.917c-0.038-0.003-0.057-0.007-0.081-0.021c-0.024-0.014-0.043-0.026-0.138-0.269l-0.086-0.219
				c-0.038-0.1-0.074-0.186-0.107-0.286c-0.003-0.005-0.017-0.007-0.031-0.007s-0.029,0.003-0.029,0.007
				c-0.033,0.1-0.076,0.212-0.117,0.319l-0.071,0.186c-0.076,0.2-0.105,0.248-0.131,0.267c-0.019,0.014-0.047,0.022-0.083,0.022
				c-0.036,0-0.085-0.009-0.102-0.019c-0.017-0.011-0.029-0.036-0.029-0.269v-0.186c0-0.233,0.012-0.262,0.029-0.269
				c0.014-0.009,0.047-0.017,0.1-0.024c0.003,0,0.005-0.012,0.005-0.019c0-0.005-0.003-0.009-0.003-0.009h-0.379
				c0,0-0.003,0.005-0.003,0.009c0,0.007,0.003,0.019,0.005,0.019c0.052,0.007,0.086,0.014,0.1,0.024
				c0.017,0.007,0.029,0.036,0.029,0.269v0.186c0,0.233-0.012,0.262-0.029,0.269c-0.014,0.009-0.047,0.017-0.1,0.021
				c-0.003,0.003-0.005,0.009-0.005,0.019c0,0.005,0.003,0.012,0.003,0.012h0.378l0,0h0.276c0.003,0,0.005-0.009,0.005-0.017
				s-0.003-0.014-0.005-0.014c-0.055-0.005-0.074-0.017-0.074-0.038c0-0.019,0.005-0.047,0.029-0.112l0.029-0.079h0.303l0.036,0.088
				c0.029,0.071,0.036,0.095,0.036,0.11c0,0.019-0.026,0.029-0.067,0.031c-0.003,0-0.003,0.005-0.003,0.012
				c0,0.009,0,0.019,0.003,0.019h0.307c0.003,0,0.003-0.009,0.003-0.019C45.532,61.922,45.532,61.917,45.53,61.917z M44.94,61.629
				l0.126-0.338l0.131,0.338H44.94z"/>
			<path class="st15" d="M47.035,64.972c0.011,0.019,0.029,0.056,0.029,0.06c0,0.006-0.005,0.011-0.013,0.011
				c-0.032,0-0.065,0.006-0.098,0.018l-0.046,0.014c-0.021,0.006-0.029,0.011-0.044,0.011c-0.011,0-0.014-0.006-0.014-0.013
				c0-0.006,0.002-0.013,0.009-0.018l0.141-0.09c0.006-0.005,0.014-0.008,0.018-0.008C47.022,64.957,47.029,64.963,47.035,64.972z
				 M47.7,65.694c-0.025-0.003-0.04-0.008-0.052-0.018c-0.016-0.008-0.041-0.06-0.056-0.095l-0.166-0.422
				c0-0.003-0.022-0.005-0.032-0.005s-0.027,0.002-0.029,0.005l-0.16,0.411c-0.022,0.057-0.041,0.092-0.06,0.106
				c-0.009,0.006-0.019,0.011-0.033,0.014c-0.003,0.001-0.007,0.001-0.011,0.002c-0.012,0.001-0.026,0.002-0.039,0
				c-0.018-0.002-0.031-0.005-0.04-0.009c-0.003-0.001-0.006-0.003-0.009-0.004c-0.003-0.001-0.005-0.003-0.007-0.007
				c-0.007-0.012-0.012-0.047-0.012-0.166v-0.124c0-0.155,0.008-0.168,0.019-0.173c0.011-0.006,0.029-0.011,0.063-0.016
				c0.002,0,0.003-0.008,0.003-0.013c0-0.003-0.002-0.013-0.002-0.013H46.81c-0.002,0-0.002,0.011-0.002,0.016s0,0.009,0.003,0.009
				c0.035,0.005,0.052,0.009,0.063,0.016c0.011,0.005,0.021,0.018,0.021,0.173v0.124c0,0.155-0.006,0.168-0.018,0.173
				c-0.011,0.006-0.032,0.011-0.067,0.014c-0.003,0.002-0.003,0.006-0.003,0.011s0,0.016,0.002,0.016h0.278h0.003h0.214
				c0.002,0,0.002-0.011,0.002-0.016c0-0.003,0-0.011-0.002-0.011c-0.038-0.005-0.065-0.013-0.065-0.029
				c0-0.021,0.016-0.057,0.03-0.094l0.009-0.025h0.197c0.03,0.073,0.041,0.108,0.041,0.124c0,0.013-0.022,0.019-0.056,0.024
				c-0.002,0-0.002,0.008-0.002,0.011c0,0.005,0,0.016,0.002,0.016h0.238c0.002,0,0.003-0.011,0.003-0.016
				C47.703,65.7,47.701,65.694,47.7,65.694z M47.294,65.503l0.079-0.214l0.086,0.214H47.294z"/>
			<path class="st15" d="M44.908,64.157h-0.23c0,0-0.002,0.011-0.002,0.014c0,0.006,0.002,0.011,0.003,0.013
				c0.035,0.003,0.052,0.008,0.063,0.014c0.008,0.003,0.021,0.011,0.022,0.103l0.003,0.258l-0.414-0.409
				c0-0.002-0.016-0.003-0.022-0.003c-0.014,0-0.019,0.003-0.019,0.006c0,0.021,0.008,0.146,0.008,0.217v0.195
				c0,0.084-0.011,0.096-0.019,0.101c-0.006,0.004-0.036,0.013-0.064,0.013c-0.03,0-0.046-0.009-0.057-0.017
				c-0.018-0.012-0.041-0.06-0.056-0.095l-0.166-0.422c0-0.003-0.022-0.005-0.032-0.005s-0.027,0.002-0.029,0.005l-0.16,0.411
				c-0.022,0.057-0.041,0.092-0.06,0.106c-0.013,0.009-0.03,0.014-0.057,0.018c-0.002,0-0.002,0.008-0.002,0.011
				c0,0.005,0,0.016,0.002,0.016h0.217c0.002,0,0.002-0.011,0.002-0.016c0-0.003,0-0.011-0.002-0.011
				c-0.038-0.005-0.065-0.013-0.065-0.029c0-0.021,0.016-0.057,0.03-0.094l0.009-0.025h0.197c0.03,0.073,0.041,0.108,0.041,0.124
				c0,0.013-0.022,0.019-0.056,0.024c-0.002,0-0.002,0.008-0.002,0.011c0,0.005,0,0.016,0.002,0.016h0.241h0.004h0.226
				c0,0,0.002-0.011,0.002-0.014c0-0.006-0.002-0.011-0.003-0.013c-0.035-0.003-0.052-0.008-0.063-0.014
				c-0.008-0.003-0.021-0.011-0.022-0.103l-0.003-0.247l0.406,0.395c0.002,0.002,0.008,0.003,0.014,0.003
				c0.008,0,0.032-0.003,0.032-0.006c-0.005-0.067-0.005-0.143-0.005-0.214v-0.195c0-0.084,0.011-0.098,0.019-0.101
				c0.011-0.006,0.029-0.011,0.063-0.014c0.003-0.002,0.003-0.006,0.003-0.011C44.909,64.168,44.909,64.157,44.908,64.157z
				 M43.827,64.491l0.079-0.214l0.086,0.214H43.827z"/>
		</g>
		<g>
			<g>
				<path class="st20" d="M36.809,73.896c-2.659,0-4.814,3.8-4.814,8.488h9.629C41.624,77.696,39.468,73.896,36.809,73.896z"/>
				<path class="st20" d="M30.613,78.581c-1.191,0-2.157,1.703-2.157,3.803h4.314C32.77,80.284,31.805,78.581,30.613,78.581z"/>
				<path class="st20" d="M25.626,76.015c-1.995,0-3.613,2.852-3.613,6.37h7.226C29.239,78.866,27.622,76.015,25.626,76.015z"/>
			</g>
		</g>
		<g>
			<g>
				<path class="st20" d="M105.686,73.896c-2.659,0-4.814,3.8-4.814,8.488h9.629C110.501,77.696,108.345,73.896,105.686,73.896z"/>
				<path class="st20" d="M99.491,78.581c-1.191,0-2.157,1.703-2.157,3.803h4.314C101.648,80.284,100.682,78.581,99.491,78.581z"/>
				<path class="st20" d="M94.504,76.015c-1.995,0-3.613,2.852-3.613,6.37h7.226C98.117,78.866,96.499,76.015,94.504,76.015z"/>
			</g>
		</g>
	</g>
	<g>
		<g>
			<rect x="14.727" y="52.906" class="st18" width="4.222" height="29.103"/>
			<g>
				<path class="st20" d="M30.527,40.613c3.54-2.776,4.518-7.823,2.116-11.756c-2.589-4.237-8.122-5.574-12.36-2.985
					c-1.54,0.941-2.698,2.271-3.422,3.788c-3.407-2.249-7.944-2.475-11.658-0.207c-4.944,3.02-6.62,9.355-3.917,14.398
					c-1.236,2.641-1.167,5.832,0.467,8.506c2.588,4.237,8.122,5.574,12.36,2.986c0.313-0.191,0.611-0.399,0.892-0.621
					c3.389,2.158,7.85,2.346,11.51,0.11C31.4,51.848,33.096,45.626,30.527,40.613z"/>
			</g>
		</g>
	</g>
	<g>
		<g>
			<rect x="106.692" y="56.578" class="st18" width="4.222" height="25.926"/>
			<g>
				<path class="st20" d="M122.492,44.285c3.54-2.776,4.518-7.823,2.116-11.756c-2.589-4.237-8.122-5.574-12.36-2.985
					c-1.54,0.941-2.698,2.271-3.422,3.788c-3.407-2.249-7.944-2.475-11.658-0.207c-4.944,3.02-6.62,9.355-3.917,14.398
					c-1.236,2.641-1.167,5.832,0.467,8.506c2.588,4.237,8.122,5.574,12.36,2.986c0.313-0.191,0.611-0.399,0.892-0.621
					c3.389,2.158,7.85,2.346,11.51,0.11C123.365,55.519,125.061,49.297,122.492,44.285z"/>
			</g>
		</g>
	</g>
</g>
</svg>
